<svg id="Group_776" data-name="Group 776" xmlns="http://www.w3.org/2000/svg" xmlns:xlink="http://www.w3.org/1999/xlink" width="75" height="52.457" viewBox="0 0 75 52.457">
  <defs>
    <clipPath id="clip-path">
      <rect id="Rectangle_74" data-name="Rectangle 74" width="75" height="52.457" fill="#f91313"/>
    </clipPath>
  </defs>
  <g id="Group_83" data-name="Group 83" clip-path="url(#clip-path)">
    <path id="Path_5149" data-name="Path 5149" d="M75,45.425a2,2,0,0,1-1.993,1.042c-3.148-.043-6.3-.016-9.445-.016h-.779c-1.407,3.983-3.868,5.989-7.322,6.005q-5.261.025-7.427-5.961H25.421a7.582,7.582,0,0,1-3.2,4.709,7.31,7.31,0,0,1-4.5,1.244,7.543,7.543,0,0,1-6.981-6H9.9c-2.636,0-5.272-.029-7.907.016A1.986,1.986,0,0,1,0,45.425V4.993a.714.714,0,0,0,.112-.18,5.893,5.893,0,0,1,6.2-4.8Q36.263.011,66.217,0a1.913,1.913,0,0,1,1.921,1.142c1.655,3.234,3.352,6.446,5.028,9.669.769,1.479.146,2.51-1.514,2.512q-4.211,0-8.422,0h-1.22L75,32.68ZM2.962,43.474h7.772c1.192-3.689,3.7-5.815,6.982-5.947A7.387,7.387,0,0,1,22.1,38.695a7.591,7.591,0,0,1,3.327,4.792c.172.012.291.028.411.028q10.837,0,21.675.013c.468,0,.6-.17.722-.592a7.457,7.457,0,0,1,14.331-.044c.061.2.124.4.178.58H72V34.6c-2.748,0-5.432,0-8.116,0-1.3,0-1.94-.48-1.949-1.451s.645-1.484,1.918-1.485h6.906a19.1,19.1,0,0,1-1.183-1.814,2.238,2.238,0,0,0-2.371-1.3c-4.27.08-8.543.037-12.814.03a5.008,5.008,0,0,1-5.3-5.273c-.009-2.465.07-4.933-.02-7.4a5.207,5.207,0,0,1,5.5-5.549c4.708.109,9.421.028,14.132.028h.884c-.152-.322-.254-.561-.373-.79-1.024-1.968-2.072-3.923-3.062-5.908a1.153,1.153,0,0,0-1.21-.757q-29.29.03-58.581.017c-2.258,0-3.424,1.165-3.424,3.424q0,12.23,0,24.459v.829h21.9a5.035,5.035,0,0,1,.731.02,1.462,1.462,0,0,1-.062,2.9,7.671,7.671,0,0,1-.8.015H2.962ZM66.628,25.642a1.428,1.428,0,0,0-.091-.277q-3.926-5.861-7.87-11.71a.918.918,0,0,0-.656-.315q-1.938-.043-3.877-.006a1.994,1.994,0,0,0-2.091,2.072q-.053,4.059,0,8.12a2.018,2.018,0,0,0,2.141,2.11c4.12.019,8.24.007,12.444.007M13.575,45.011a4.513,4.513,0,1,0,4.473-4.554,4.52,4.52,0,0,0-4.473,4.554m46.346-.04A4.526,4.526,0,1,0,55.44,49.52a4.535,4.535,0,0,0,4.481-4.549" transform="translate(0 0)" fill="#f91313"/>
    <path id="Path_5150" data-name="Path 5150" d="M78.282,68.389V56.1h-.8c-1.684,0-3.368.009-5.052,0a1.477,1.477,0,0,1-1.641-1.476c0-.892.611-1.449,1.646-1.454q3.587-.016,7.175,0a1.435,1.435,0,0,1,1.638,1.615q.019,7.468,0,14.936a1.457,1.457,0,0,1-1.632,1.632q-13.728.01-27.455,0a1.473,1.473,0,0,1-1.659-1.619q-.026-7.468,0-14.936a1.457,1.457,0,0,1,1.639-1.628q3.294-.019,6.589,0a1.488,1.488,0,0,1,1.651,1.468A1.522,1.522,0,0,1,58.712,56.1c-1.684.015-3.367.011-5.051.019-.044,0-.087.036-.168.071v12.2Z" transform="translate(-40.632 -42.774)" fill="#f91313"/>
    <path id="Path_5151" data-name="Path 5151" d="M121.624,53.144a1.415,1.415,0,0,1,1.44,1.433,1.458,1.458,0,0,1-1.421,1.471,1.5,1.5,0,0,1-1.494-1.487,1.457,1.457,0,0,1,1.475-1.416" transform="translate(-96.682 -42.764)" fill="#f91313"/>
    <path id="Path_5152" data-name="Path 5152" d="M87.981,224.617a1.413,1.413,0,0,1-1.46,1.41,1.443,1.443,0,0,1-1.442-1.442,1.469,1.469,0,0,1,1.51-1.46,1.443,1.443,0,0,1,1.392,1.492" transform="translate(-68.462 -179.545)" fill="#f91313"/>
    <path id="Path_5153" data-name="Path 5153" d="M279.094,224.617a1.413,1.413,0,0,1-1.46,1.41,1.443,1.443,0,0,1-1.442-1.442,1.469,1.469,0,0,1,1.51-1.46,1.443,1.443,0,0,1,1.392,1.492" transform="translate(-222.248 -179.545)" fill="#f91313"/>
  </g>
</svg>
