<svg id="Group_774" data-name="Group 774" xmlns="http://www.w3.org/2000/svg" xmlns:xlink="http://www.w3.org/1999/xlink" width="61.403" height="60" viewBox="0 0 61.403 60">
  <defs>
    <clipPath id="clip-path">
      <rect id="Rectangle_72" data-name="Rectangle 72" width="61.403" height="60" fill="#f91313"/>
    </clipPath>
  </defs>
  <g id="Group_79" data-name="Group 79" clip-path="url(#clip-path)">
    <path id="Path_5140" data-name="Path 5140" d="M44.328,57.033a4.532,4.532,0,0,1-3.421,2.888,3.848,3.848,0,0,1-.728.067c-1.549.006-3.1.022-4.646,0a4.4,4.4,0,0,1-4.388-4.344,4.344,4.344,0,0,1,4.1-4.481c1.727-.092,3.464-.077,5.192-.005a4.113,4.113,0,0,1,3.687,2.515.629.629,0,0,0,.678.435c1.607-.047,3.228.047,4.82-.125a5.81,5.81,0,0,0,5.054-5.577c.032-1.056.005-2.113.005-3.083a12.669,12.669,0,0,1-1.842-.788,3.72,3.72,0,0,1-1.854-3.253c-.021-3.954-.031-7.908,0-11.862a3.95,3.95,0,0,1,3.124-3.812c.158-.038.314-.082.468-.123a23.94,23.94,0,0,0-47.791-.032c.158.049.325.109.5.151a3.962,3.962,0,0,1,3.144,3.86c.033,3.913.047,7.827,0,11.74a4.1,4.1,0,0,1-5.1,3.94,6.046,6.046,0,0,1-5.19-5.478,68.763,68.763,0,0,1,.006-8.729,5.686,5.686,0,0,1,3.214-4.687.814.814,0,0,0,.477-.742C4.9,13.909,10.786,5.757,21.669,1.666,37.023-4.1,54.068,5.712,57.117,21.823c.23,1.217.335,2.46.463,3.695a.771.771,0,0,0,.43.71,6.179,6.179,0,0,1,3.367,5.629q.054,3.484,0,6.97a6.187,6.187,0,0,1-3.306,5.606.8.8,0,0,0-.456.814,30.832,30.832,0,0,1-.129,4.269,8.81,8.81,0,0,1-8.7,7.513c-1.485.022-2.972,0-4.456,0M53.9,35.313c0,1.895-.009,3.79,0,5.685a1.143,1.143,0,0,0,1.34,1.276,3.336,3.336,0,0,0,3.187-3.254q.072-3.666,0-7.334a3.358,3.358,0,0,0-3-3.254c-1.051-.091-1.53.331-1.535,1.381-.007,1.834,0,3.667,0,5.5m-46.394.039q0-2.781,0-5.562c0-.041,0-.081,0-.122A1.149,1.149,0,0,0,6.194,28.42,3.333,3.333,0,0,0,2.98,31.646c-.052,2.464-.048,4.931,0,7.4a3.343,3.343,0,0,0,2.963,3.218c1.091.1,1.562-.312,1.566-1.405.006-1.834,0-3.667,0-5.5m30.31,21.706c.754,0,1.508.013,2.262,0a1.465,1.465,0,0,0,1.537-1.475,1.443,1.443,0,0,0-1.5-1.507q-2.261-.039-4.524,0a1.452,1.452,0,0,0-1.511,1.5,1.475,1.475,0,0,0,1.535,1.483c.733.016,1.467,0,2.2,0" transform="translate(0 0)" fill="#f91313"/>
    <path id="Path_5141" data-name="Path 5141" d="M98.183,113.043a18.606,18.606,0,0,1-3.069-1.013,5.945,5.945,0,0,1-3.252-5.555c-.022-4.137-.04-8.275,0-12.412a6.179,6.179,0,0,1,6.462-6.346q9.261-.016,18.521,0a6.16,6.16,0,0,1,6.436,6.306q.084,6.235,0,12.473a6.2,6.2,0,0,1-6.484,6.334c-2.465.009-4.931-.012-7.4.019a1.514,1.514,0,0,0-.945.384c-1.729,1.671-3.405,3.4-5.138,5.063a2.984,2.984,0,0,1-4.842-.938,4.486,4.486,0,0,1-.287-1.544c-.044-.972-.013-1.948-.013-2.774m2.936,3.07.148.081c.159-.147.322-.289.475-.441,1.72-1.708,3.451-3.405,5.149-5.135a2.287,2.287,0,0,1,1.788-.73c2.668.028,5.336.013,8,.01a3.344,3.344,0,0,0,3.682-3.671q.008-5.959,0-11.918a3.325,3.325,0,0,0-3.686-3.657q-9.074,0-18.148,0c-2.443,0-3.739,1.289-3.74,3.724q0,5.9,0,11.8a7.269,7.269,0,0,0,.037.793,3.18,3.18,0,0,0,2.679,2.85,12.213,12.213,0,0,0,1.765.081c1.358.014,1.843.486,1.845,1.834q0,2.192,0,4.384" transform="translate(-76.872 -73.416)" fill="#f91313"/>
    <path id="Path_5142" data-name="Path 5142" d="M177.25,152.9a2.169,2.169,0,1,1-2.159,2.2,2.2,2.2,0,0,1,2.159-2.2" transform="translate(-146.557 -127.982)" fill="#f91313"/>
    <path id="Path_5143" data-name="Path 5143" d="M131.406,155.094a2.158,2.158,0,1,1,2.2,2.145,2.183,2.183,0,0,1-2.2-2.145" transform="translate(-109.991 -127.982)" fill="#f91313"/>
    <path id="Path_5144" data-name="Path 5144" d="M223.251,155.071a2.158,2.158,0,1,1-4.316-.036,2.158,2.158,0,0,1,4.316.036" transform="translate(-183.255 -127.982)" fill="#f91313"/>
  </g>
</svg>
