<svg id="Group_775" data-name="Group 775" xmlns="http://www.w3.org/2000/svg" xmlns:xlink="http://www.w3.org/1999/xlink" width="60" height="60" viewBox="0 0 60 60">
  <defs>
    <clipPath id="clip-path">
      <rect id="Rectangle_73" data-name="Rectangle 73" width="60" height="60" fill="#f91313"/>
    </clipPath>
  </defs>
  <g id="Group_81" data-name="Group 81" clip-path="url(#clip-path)">
    <path id="Path_5145" data-name="Path 5145" d="M30.776,59.914H29.138c-1.351-.58-2.718-1.126-4.045-1.756a3.286,3.286,0,0,0-1.789-.3,18.843,18.843,0,0,1-3.546.117,5.809,5.809,0,0,1-4.094-2.66,6.075,6.075,0,0,0-3.81-2.516,5.853,5.853,0,0,1-4.716-4.641,6.154,6.154,0,0,0-2.818-4.137,3.557,3.557,0,0,1-.58-.489,5.446,5.446,0,0,1-1.871-3.837c-.041-1.26.118-2.525.143-3.789a2.456,2.456,0,0,0-.232-1.1A17.183,17.183,0,0,1,0,30.776V29.138c.492-1.177.926-2.384,1.5-3.522A3.825,3.825,0,0,0,2.01,22.9a10,10,0,0,1-.145-1.451A5.667,5.667,0,0,1,4.123,16.1a8.137,8.137,0,0,0,3.191-4.854,5.515,5.515,0,0,1,4.05-4c.409-.125.808-.3,1.224-.383a4.145,4.145,0,0,0,2.795-1.9,8.462,8.462,0,0,1,.924-1.129,5.453,5.453,0,0,1,3.915-1.958c1.26-.044,2.525.118,3.789.143a2.484,2.484,0,0,0,1.1-.232A17.329,17.329,0,0,1,29.138,0h1.638c1.351.579,2.72,1.122,4.046,1.754a3.281,3.281,0,0,0,1.789.3,18.91,18.91,0,0,1,3.546-.118,5.743,5.743,0,0,1,4.057,2.614,6.157,6.157,0,0,0,3.848,2.557,5.866,5.866,0,0,1,4.715,4.646,6.147,6.147,0,0,0,2.82,4.136,3.2,3.2,0,0,1,.5.409,5.5,5.5,0,0,1,1.953,3.919c.042,1.26-.115,2.525-.145,3.789a2.285,2.285,0,0,0,.2,1.045,17.2,17.2,0,0,1,1.809,4.082v1.638c-.492,1.177-.926,2.384-1.5,3.522a3.824,3.824,0,0,0-.514,2.72,9.862,9.862,0,0,1,.145,1.451,5.686,5.686,0,0,1-2.257,5.35A8.1,8.1,0,0,0,52.6,48.673a5.532,5.532,0,0,1-3.882,3.956,12.429,12.429,0,0,1-1.337.414A4.286,4.286,0,0,0,44.5,55.005a7.8,7.8,0,0,1-.928,1.126,5.42,5.42,0,0,1-3.875,1.913c-1.279.042-2.564-.114-3.847-.149a2.015,2.015,0,0,0-.936.181,17.254,17.254,0,0,1-4.133,1.838M38.8,55.751a3.706,3.706,0,0,0,3.476-1.709c.517-.684,1.063-1.349,1.635-1.986a2.2,2.2,0,0,1,.843-.579c1.023-.376,2.06-.713,3.1-1.037a3.691,3.691,0,0,0,2.577-2.564c.289-.929.535-1.873.857-2.791a2.459,2.459,0,0,1,.622-.952c.828-.769,1.707-1.484,2.554-2.233a3.544,3.544,0,0,0,1.254-3.074c-.082-1.03-.211-2.056-.268-3.087a2.333,2.333,0,0,1,.2-1.061c.462-1.008.975-1.994,1.478-2.983a3.661,3.661,0,0,0-.051-3.581c-.442-.824-.917-1.632-1.312-2.478a2.8,2.8,0,0,1-.252-1.224c.029-1.051.118-2.1.216-3.15a3.752,3.752,0,0,0-1.507-3.482C53.49,17.2,52.756,16.617,52.056,16a2.189,2.189,0,0,1-.58-.842q-.557-1.505-1.022-3.045a3.7,3.7,0,0,0-2.635-2.647c-.876-.262-1.764-.5-2.62-.816a3.144,3.144,0,0,1-1.141-.738c-.753-.789-1.435-1.645-2.158-2.463a3.538,3.538,0,0,0-3.073-1.253c-1.01.081-2.017.216-3.028.26a2.8,2.8,0,0,1-1.223-.242c-.959-.429-1.89-.922-2.826-1.4a3.693,3.693,0,0,0-3.684.059c-.783.435-1.563.882-2.378,1.25a3.207,3.207,0,0,1-1.332.277c-.973-.016-1.949-.09-2.916-.2a3.767,3.767,0,0,0-3.827,1.735,7,7,0,0,1-4.721,3.291c-.266.048-.517.171-.78.244a3.648,3.648,0,0,0-2.65,2.63c-.274.914-.524,1.836-.842,2.734A2.473,2.473,0,0,1,8,15.78c-.828.769-1.706,1.484-2.554,2.233a3.536,3.536,0,0,0-1.256,3.072c.081,1.01.216,2.017.26,3.028a2.8,2.8,0,0,1-.241,1.224c-.437.977-.937,1.926-1.423,2.88a3.653,3.653,0,0,0,.051,3.58c.451.841.93,1.668,1.342,2.528a2.479,2.479,0,0,1,.229,1.114c-.037,1.071-.121,2.141-.222,3.208a3.745,3.745,0,0,0,1.506,3.481c.731.584,1.467,1.163,2.167,1.784a2.188,2.188,0,0,1,.578.844c.371,1,.714,2.019,1.021,3.045a3.705,3.705,0,0,0,2.634,2.649c.895.269,1.8.508,2.677.826a2.79,2.79,0,0,1,1.047.682c.761.808,1.46,1.675,2.2,2.508a3.542,3.542,0,0,0,3.072,1.255c1.03-.082,2.056-.211,3.087-.268a2.336,2.336,0,0,1,1.063.2c.991.454,1.96.955,2.929,1.455a3.71,3.71,0,0,0,3.686-.054c.787-.429,1.562-.884,2.376-1.254a3.175,3.175,0,0,1,1.331-.277c.973.019,1.944.132,3.246.231" fill="#f91313"/>
    <path id="Path_5146" data-name="Path 5146" d="M88.864,68.882A23.421,23.421,0,1,1,59.534,46.245c1.034-.273,1.747.095,1.81.934.05.659-.291,1.09-1.084,1.295a19.526,19.526,0,0,0-5.993,2.553C47.251,55.681,43.85,62.239,44.481,70.64a20.846,20.846,0,0,0,16.761,18.9A21.061,21.061,0,0,0,70.648,48.49c-.543-.139-1-.359-1.125-.96a1.154,1.154,0,0,1,1.5-1.349,21.922,21.922,0,0,1,7.436,3.3A23.111,23.111,0,0,1,88.674,66.2c.114.887.129,1.788.19,2.682" transform="translate(-35.468 -38.939)" fill="#f91313"/>
    <path id="Path_5147" data-name="Path 5147" d="M114.223,87.012a6.035,6.035,0,0,0,.608-1.115c.181-.592.211-1.229.376-1.828a17.441,17.441,0,0,1,.8-2.429,9.388,9.388,0,0,0,.846-3.495,7.181,7.181,0,0,1,.066-.815,2.332,2.332,0,0,1,3.266-2.037,5.5,5.5,0,0,1,3.5,6.612,11.481,11.481,0,0,1-.425,1.333,3.144,3.144,0,0,0,.256,2.7.723.723,0,0,0,.74.422c3.041-.014,6.083-.031,9.123,0a3.538,3.538,0,0,1,3.129,5.243,1.4,1.4,0,0,1-.189.294c-.36.376-.876.685-1.052,1.13s.1,1.063-.034,1.543A20.938,20.938,0,0,1,134.3,96.8a1.431,1.431,0,0,0-.16.668,4.7,4.7,0,0,1-1.082,3.758.9.9,0,0,0-.235.591,4.47,4.47,0,0,1-3.867,5.172,41.481,41.481,0,0,1-10.144-.183c-1.453-.255-2.874-.691-4.307-1.055a.669.669,0,0,0-.706.194,1.729,1.729,0,0,1-1.03.406c-1.929.038-3.86.021-5.79.017-.977,0-1.382-.4-1.383-1.389q-.005-7.778,0-15.557c0-.624-.011-1.248.005-1.871a1.113,1.113,0,0,1,1.2-1.21c2.027-.013,4.056-.03,6.082.016a3.846,3.846,0,0,1,1.187.455l.152.2m-.109,16.237c1.027.246,2,.428,2.949.716a18.031,18.031,0,0,0,5.989.818c1.538-.059,3.08-.009,4.62-.014a6.292,6.292,0,0,0,.875-.049,2.206,2.206,0,0,0,1.92-2.2,4.238,4.238,0,0,1-.517-.038,1.165,1.165,0,0,1-.781-1.731,1.339,1.339,0,0,1,1.135-.6,1.647,1.647,0,0,0,1.485-1.81,4.391,4.391,0,0,1-1.332-.658,1.439,1.439,0,0,1-.187-1.124c.106-.5.551-.7,1.067-.75a1.7,1.7,0,0,0,1.52-2.294c-.774,0-1.552,0-2.329,0-.793,0-1.284-.422-1.309-1.1a1.165,1.165,0,0,1,1.262-1.229c.584-.029,1.169-.02,1.754-.035a9.859,9.859,0,0,0,1.34-.062,1.209,1.209,0,0,0,1.04-1.224,1.243,1.243,0,0,0-1.186-1.158c-.174-.016-.351-.008-.526-.008q-5.644,0-11.288,0c-.835,0-1.294-.287-1.452-.9-.145-.563.135-1.039.836-1.424.03-.016.044-.06.064-.092a5.876,5.876,0,0,1,.229-4.494,3.407,3.407,0,0,0-.243-2.987,2.665,2.665,0,0,0-1.817-1.33c-.018.328-.034.576-.046.824a12.436,12.436,0,0,1-.865,3.915c-.41,1.063-.68,2.179-1,3.275-.169.578-.271,1.179-.483,1.74a3.107,3.107,0,0,1-2.208,2c-.451.116-.523.327-.522.728.012,3.548.007,7.1.007,10.645v2.658m-2.377-14.525h-3.753V104h3.753Z" transform="translate(-89.116 -63.413)" fill="#f91313"/>
    <path id="Path_5148" data-name="Path 5148" d="M186.858,43.194a1.166,1.166,0,1,1-1.133-1.17,1.179,1.179,0,0,1,1.133,1.17" transform="translate(-155.736 -35.467)" fill="#f91313"/>
  </g>
</svg>
