<svg id="Group_777" data-name="Group 777" xmlns="http://www.w3.org/2000/svg" xmlns:xlink="http://www.w3.org/1999/xlink" width="61.171" height="60" viewBox="0 0 61.171 60">
  <defs>
    <clipPath id="clip-path">
      <rect id="Rectangle_75" data-name="Rectangle 75" width="61.171" height="60" fill="#f91313" stroke="#f91313" stroke-width="1"/>
    </clipPath>
  </defs>
  <g id="Group_85" data-name="Group 85" clip-path="url(#clip-path)">
    <path id="Path_5154" data-name="Path 5154" d="M61.171,31.438c-.082.241-.147.49-.249.723a1.172,1.172,0,0,1-1.368.7,1.135,1.135,0,0,1-.882-1.193,31.6,31.6,0,0,0-.273-6.606,8.931,8.931,0,0,1,.177-1.95c-.015-.012-.043-.055-.076-.059-1.472-.168-2.358-1.165-3.275-2.194a15.407,15.407,0,0,1-3.145-4.741,3.226,3.226,0,0,0-1.113-1.2,8.206,8.206,0,0,1-3.023-3.383c-.381-1-.6-2.057-.883-3.092a2.229,2.229,0,0,0-1-1.558A4.172,4.172,0,0,1,44.1,4.218c-.131-.433-.281-.861-.422-1.291l-.206,0c-.059.607-.153,1.213-.169,1.821-.04,1.47.007,2.944-.089,4.409a3.671,3.671,0,0,1-.583,1.6A2.657,2.657,0,0,1,39.219,11.8,14.011,14.011,0,0,1,34.3,8.6a2.493,2.493,0,0,1-.534-2.872c.271-.634.588-1.249.924-1.957a6.376,6.376,0,0,0-.887-.2c-1.29-.1-2.58-.212-3.873-.267a2.821,2.821,0,0,0-2.382,1.144c-.554.678-1.1,1.366-1.706,2a3.014,3.014,0,0,1-3.492.781c-.26-.1-.526-.184-.784-.287a1.5,1.5,0,0,0-1.583.192c-1.561,1.3-3.111,2.607-4.624,3.959a1.732,1.732,0,0,0-.412,1.023,3.742,3.742,0,0,1-2.736,3.215c-1.89.679-3.793,1.32-5.673,2.025a5.707,5.707,0,0,0-1.716.94,5.406,5.406,0,0,0-1.407,1.719,21.49,21.49,0,0,0-.957,3,2.519,2.519,0,0,0,.368,2.109c.441.71.906,1.408,1.3,2.145a7.053,7.053,0,0,1,.768,3.342,8.432,8.432,0,0,0,.618,3.672,2.415,2.415,0,0,1-.266,2.338c-.214.354-.432.706-.644,1.053a4.327,4.327,0,0,0,4.569.226A11.594,11.594,0,0,1,14.454,36.6a9.173,9.173,0,0,0,3.781-1.183,25.706,25.706,0,0,1,4.2-1.954,9.581,9.581,0,0,1,10.1,2.722c.464.465.851,1.015,1.351,1.433a7.5,7.5,0,0,0,1.816,1.2,2.625,2.625,0,0,1,1.684,1.358c1.946-.107,2.751.39,3.218,2.277a3.276,3.276,0,0,0,2.909,2.649,2.721,2.721,0,0,1,2.221,1.422,2.78,2.78,0,0,1,2.249-1.255c.454.006.906.131,1.36.147a.844.844,0,0,0,.619-.2,3.777,3.777,0,0,1,2.783-1.434.975.975,0,0,0,.963-1.067c.029-.5.027-1,.056-1.493a4.907,4.907,0,0,1,.965-2.532,1.143,1.143,0,0,1,1.49-.346,1.043,1.043,0,0,1,.53,1.41,7.883,7.883,0,0,0-.7,3.341,3.166,3.166,0,0,1-2.918,3.04,2.151,2.151,0,0,0-1.471.775,2.669,2.669,0,0,1-2.925.839.96.96,0,0,0-1.252.526c-.978,1.639-2.666,1.586-3.6-.1a1.375,1.375,0,0,0-1.062-.8,5.066,5.066,0,0,1-3.318-1.839,12.38,12.38,0,0,1-1.1-2.212c-.115-.246-.184-.512-.278-.78-.346.063-.635.131-.928.167A1.881,1.881,0,0,1,35.165,41.5a.834.834,0,0,0-.4-.434,7.443,7.443,0,0,1-2.681-1.847,22.078,22.078,0,0,0-2.345-2.293c-2.538-1.947-5.3-1.934-8.11-.658-.831.377-1.6.881-2.407,1.317a10.315,10.315,0,0,1-4.584,1.389A13.074,13.074,0,0,0,9.764,40.2a7.584,7.584,0,0,1-2.813.637,6.837,6.837,0,0,1-3.708-1.17,2.015,2.015,0,0,1-.8-2.934,3.225,3.225,0,0,0,.322-3.227,8.355,8.355,0,0,1-.248-2.778,5.548,5.548,0,0,0-.926-3.093A7.3,7.3,0,0,1,.044,24.32a4.409,4.409,0,0,1,.058-1.6,25.973,25.973,0,0,1,1.513-4.434c.907-1.792,2.675-2.67,4.5-3.343q2.517-.931,5.068-1.771a1.862,1.862,0,0,0,1.471-1.717,3.389,3.389,0,0,1,1.2-2.268c1.3-1.142,2.585-2.309,3.9-3.431a4.454,4.454,0,0,1,5.137-.871c.071.034.149.055.223.084a.868.868,0,0,0,1.078-.24c.514-.608,1.032-1.212,1.539-1.827A5.1,5.1,0,0,1,30.3.932c1.486.119,2.974.231,4.456.4a3.279,3.279,0,0,1,1.164.435,2.189,2.189,0,0,1,.988,2.914,13.063,13.063,0,0,1-.774,1.546.7.7,0,0,0,.17,1.041c1.161.764,2.321,1.536,3.528,2.22.578.328.943.118,1-.544a33.193,33.193,0,0,0,.081-3.391,9.6,9.6,0,0,1,.413-3.535,4.748,4.748,0,0,1,.359-.816,2,2,0,0,1,3.53-.255,9.092,9.092,0,0,1,1.1,2.36,2.985,2.985,0,0,0,1.3,1.756A4.037,4.037,0,0,1,49.422,8.1a7.114,7.114,0,0,0,3.269,5.16,4.58,4.58,0,0,1,1.623,2,14.627,14.627,0,0,0,2.755,4.074,4.014,4.014,0,0,0,2.264,1.487,2.038,2.038,0,0,1,1.654,2.613c-.4,1.9.194,3.746.184,5.62Z" transform="translate(0 0)" fill="#f91313" stroke="#f91313" stroke-width="1"/>
    <path id="Path_5155" data-name="Path 5155" d="M307.161,344.343c-.159,1.107-.227,2.078-.45,3.012a3.1,3.1,0,0,1-2.337,2.395,3.273,3.273,0,0,1-3.438-.962,13.762,13.762,0,0,1-2.849-4.715,2.283,2.283,0,0,1,2.691-3.1c.586.1,1.157.3,1.744.386a5.854,5.854,0,0,0,1.766.115,2.379,2.379,0,0,1,2.786,2.137,7,7,0,0,1,.085.733m-6.793-.919a13.858,13.858,0,0,0,2.325,3.758.95.95,0,0,0,1.208.2,1.092,1.092,0,0,0,.545-1.042c.02-.5.156-1,.227-1.507.042-.3.055-.6.07-.777l-4.374-.631" transform="translate(-253.328 -289.887)" fill="#f91313" stroke="#f91313" stroke-width="1"/>
    <path id="Path_5156" data-name="Path 5156" d="M380.879,229.35a1.19,1.19,0,1,1-1.2-1.137,1.138,1.138,0,0,1,1.2,1.137" transform="translate(-321.838 -194.048)" fill="#f91313" stroke="#f91313" stroke-width="1"/>
  </g>
</svg>
