<svg xmlns="http://www.w3.org/2000/svg" xmlns:xlink="http://www.w3.org/1999/xlink" width="308.686" height="232.81" viewBox="0 0 308.686 232.81">
  <defs>
    <clipPath id="clip-path">
      <rect id="Rectangle_704" data-name="Rectangle 704" width="308.686" height="232.809" transform="translate(635.656 5553.248)" fill="#fff" stroke="#c8c8c8" stroke-width="0.7"/>
    </clipPath>
  </defs>
  <g id="Mask_Group_14" data-name="Mask Group 14" transform="translate(-635.656 -5553.248)" opacity="0.03" clip-path="url(#clip-path)">
    <g id="Group_783" data-name="Group 783">
      <path id="Path_5145" data-name="Path 5145" d="M143.879,280.1H136.22c-6.315-2.712-12.707-5.263-18.911-8.21a15.363,15.363,0,0,0-8.366-1.409c-5.511.476-11.127,1.118-16.579.549-8.254-.862-14.427-5.878-19.139-12.434a28.4,28.4,0,0,0-17.81-11.764c-11.713-2.565-19.26-9.991-22.048-21.7-1.959-8.23-5.785-14.919-13.176-19.342a16.628,16.628,0,0,1-2.713-2.285c-5.172-4.877-8.517-10.8-8.747-17.938-.19-5.891.553-11.806.67-17.715a11.482,11.482,0,0,0-1.085-5.121c-3.04-6.171-6.9-11.968-8.317-18.853V136.22c2.3-5.5,4.331-11.143,6.994-16.467,2.059-4.116,3.525-8.048,2.4-12.717a46.727,46.727,0,0,1-.677-6.785c-.9-10.2,2.376-18.919,10.555-25A38.041,38.041,0,0,0,34.19,52.555c2.357-9.652,9.348-15.769,18.931-18.7,1.913-.585,3.776-1.38,5.723-1.792a19.379,19.379,0,0,0,13.066-8.9,39.561,39.561,0,0,1,4.32-5.28c4.9-5.425,10.964-8.9,18.3-9.151,5.889-.2,11.806.552,17.714.67a11.612,11.612,0,0,0,5.121-1.082c6.188-3,11.955-6.924,18.851-8.319h7.659c6.318,2.708,12.715,5.247,18.915,8.2a15.341,15.341,0,0,0,8.361,1.42c5.511-.474,11.126-1.12,16.579-.552,8.141.848,14.3,5.733,18.964,12.221A28.782,28.782,0,0,0,224.69,33.242c11.673,2.584,19.268,10,22.043,21.722,1.95,8.236,5.8,14.918,13.182,19.338a14.944,14.944,0,0,1,2.315,1.91c5.379,4.943,8.884,10.979,9.132,18.322.2,5.889-.538,11.806-.676,17.715a10.683,10.683,0,0,0,.955,4.887c3.134,6.227,6.983,12.123,8.458,19.083v7.659c-2.3,5.5-4.328,11.143-6.99,16.466-2.058,4.115-3.532,8.046-2.4,12.717a46.106,46.106,0,0,1,.678,6.784c.89,10.2-2.386,18.911-10.551,25.01a37.868,37.868,0,0,0-14.917,22.689c-2.23,9.355-9.02,15.351-18.148,18.493a58.11,58.11,0,0,1-6.25,1.937c-5.742,1.274-10.342,4.056-13.5,9.175a36.453,36.453,0,0,1-4.338,5.264c-4.873,5.32-10.884,8.708-18.117,8.944-5.981.2-11.987-.532-17.986-.7a9.42,9.42,0,0,0-4.376.848c-6.295,3.2-12.272,7.086-19.32,8.591m37.527-19.461c5.992.865,11.75-2.035,16.249-7.992,2.416-3.2,4.967-6.306,7.645-9.286a10.3,10.3,0,0,1,3.942-2.7c4.781-1.756,9.631-3.333,14.5-4.846a17.256,17.256,0,0,0,12.047-11.985c1.35-4.344,2.5-8.757,4.006-13.046a11.5,11.5,0,0,1,2.909-4.452c3.87-3.6,7.979-6.935,11.938-10.439a16.57,16.57,0,0,0,5.862-14.369c-.384-4.813-.988-9.612-1.254-14.431a10.907,10.907,0,0,1,.917-4.961c2.161-4.714,4.56-9.32,6.909-13.947a17.115,17.115,0,0,0-.241-16.74c-2.066-3.851-4.286-7.63-6.135-11.583a13.1,13.1,0,0,1-1.177-5.72c.136-4.915.551-9.828,1.012-14.726.635-6.754-1.8-12.092-7.046-16.279-3.42-2.727-6.854-5.447-10.123-8.35a10.233,10.233,0,0,1-2.711-3.935q-2.605-7.036-4.776-14.233a17.314,17.314,0,0,0-12.321-12.377c-4.1-1.227-8.248-2.32-12.246-3.815a14.7,14.7,0,0,1-5.336-3.452c-3.521-3.687-6.711-7.69-10.089-11.515A16.539,16.539,0,0,0,181.518,19.6c-4.722.377-9.431,1.011-14.158,1.214a13.11,13.11,0,0,1-5.719-1.133c-4.482-2.007-8.834-4.309-13.211-6.548a17.263,17.263,0,0,0-17.225.277c-3.661,2.031-7.307,4.123-11.115,5.844a14.993,14.993,0,0,1-6.225,1.3c-4.549-.073-9.11-.419-13.631-.945-7.655-.891-13.722,1.819-17.891,8.113C76.968,35.829,70,41.356,60.272,43.1c-1.243.222-2.419.8-3.644,1.142A17.055,17.055,0,0,0,44.24,56.533c-1.279,4.272-2.45,8.582-3.935,12.782a11.561,11.561,0,0,1-2.9,4.456c-3.87,3.6-7.977,6.938-11.938,10.439a16.529,16.529,0,0,0-5.87,14.362c.38,4.722,1.012,9.43,1.215,14.158a13.111,13.111,0,0,1-1.128,5.72c-2.045,4.565-4.379,9-6.654,13.464a17.076,17.076,0,0,0,.236,16.736c2.107,3.932,4.35,7.8,6.272,11.82a11.591,11.591,0,0,1,1.072,5.21c-.173,5.006-.564,10.01-1.04,15-.645,6.76,1.8,12.089,7.042,16.274,3.42,2.728,6.86,5.439,10.131,8.34a10.229,10.229,0,0,1,2.7,3.945c1.735,4.692,3.34,9.44,4.774,14.233a17.321,17.321,0,0,0,12.313,12.386c4.183,1.257,8.417,2.376,12.517,3.864a13.045,13.045,0,0,1,4.894,3.187c3.56,3.779,6.825,7.833,10.267,11.725A16.557,16.557,0,0,0,98.571,260.5c4.813-.384,9.612-.986,14.431-1.251a10.923,10.923,0,0,1,4.968.913c4.632,2.121,9.164,4.465,13.694,6.8a17.346,17.346,0,0,0,17.234-.252c3.677-2.006,7.3-4.133,11.109-5.86a14.842,14.842,0,0,1,6.223-1.3c4.549.088,9.089.616,15.176,1.082" transform="translate(664.5 5551)" fill="#f91313"/>
      <path id="Path_5146" data-name="Path 5146" d="M261,152.469a109.8,109.8,0,0,1-91.622,107.939c-56.49,9.715-111.876-27.3-124.567-83.255A109.4,109.4,0,0,1,123.878,46.637c4.834-1.275,8.167.443,8.462,4.365.232,3.081-1.359,5.1-5.067,6.052-9.948,2.564-19.46,6.255-28.017,11.933-32.8,21.764-48.7,52.424-45.747,91.7,3.315,44.119,35.046,79.184,78.357,88.339,53.449,11.3,107.233-25.47,116.509-79.092,8.746-50.548-22-99.895-72.539-112.8-2.538-.648-4.672-1.68-5.258-4.487-.873-4.178,2.622-7.361,7.03-6.308a102.485,102.485,0,0,1,34.764,15.408c27.45,18.98,43.468,45.03,47.737,78.182.535,4.149.6,8.358.89,12.539" transform="translate(653.129 5538.516)" fill="#f91313"/>
      <path id="Path_5147" data-name="Path 5147" d="M145.947,130.658c.974-1.729,2.278-3.358,2.844-5.212.845-2.77.988-5.748,1.759-8.547a81.535,81.535,0,0,1,3.729-11.354,43.889,43.889,0,0,0,3.953-16.338,33.573,33.573,0,0,1,.308-3.809c1.252-8.245,7.234-11.964,15.267-9.524,12.333,3.746,19.657,17.516,16.384,30.912a53.686,53.686,0,0,1-1.987,6.234c-1.674,4.426-.945,8.559,1.2,12.62a3.381,3.381,0,0,0,3.46,1.974c14.217-.067,28.436-.145,42.652,0,12.82.128,20.734,13.527,14.627,24.512a6.52,6.52,0,0,1-.883,1.374c-1.682,1.757-4.1,3.2-4.918,5.285s.484,4.972-.157,7.215c-1.027,3.595-2.927,6.935-4.379,10.417a6.692,6.692,0,0,0-.746,3.123A21.985,21.985,0,0,1,234,197.106a4.229,4.229,0,0,0-1.1,2.761c1.4,11.872-6.264,23.336-18.078,24.18-15.761,1.127-31.694,1.9-47.421-.856-6.792-1.19-13.437-3.231-20.136-4.934a3.128,3.128,0,0,0-3.3.905,8.085,8.085,0,0,1-4.816,1.9c-9.019.177-18.044.1-27.067.079-4.568-.009-6.461-1.889-6.464-6.493q-.025-36.364-.008-72.729c0-2.916-.051-5.834.024-8.749.093-3.579,2.076-5.633,5.622-5.655,9.478-.06,18.96-.141,28.433.077,1.865.043,3.7,1.384,5.55,2.127l.71.94m-.508,75.907c4.8,1.148,9.367,2,13.785,3.347a84.293,84.293,0,0,0,28,3.826c7.19-.274,14.4-.042,21.6-.064a29.416,29.416,0,0,0,4.089-.231,10.314,10.314,0,0,0,8.977-10.282,19.813,19.813,0,0,1-2.417-.176,5.445,5.445,0,0,1-3.652-8.092c1.194-1.976,3.082-2.6,5.308-2.811,4.517-.422,7.7-4.889,6.944-8.463-2.436-1.122-4.86-1.607-6.228-3.075-1.032-1.108-1.23-3.584-.872-5.254.5-2.316,2.576-3.26,4.99-3.5,5.652-.572,8.884-5.509,7.1-10.724-3.619,0-7.254.015-10.888,0-3.708-.021-6-1.973-6.12-5.164-.123-3.34,2.085-5.552,5.9-5.745,2.729-.138,5.467-.1,8.2-.166a46.1,46.1,0,0,0,6.265-.29,5.652,5.652,0,0,0,4.863-5.725,5.81,5.81,0,0,0-5.544-5.415c-.814-.076-1.639-.036-2.46-.036q-26.385,0-52.771,0c-3.9,0-6.049-1.344-6.786-4.2-.68-2.632.632-4.857,3.906-6.658.139-.077.206-.28.3-.429-2.08-8.143-2.481-11.869,1.069-21.011a15.927,15.927,0,0,0-1.136-13.966,12.461,12.461,0,0,0-8.5-6.215c-.086,1.533-.16,2.692-.215,3.851a58.137,58.137,0,0,1-4.044,18.3c-1.915,4.967-3.18,10.187-4.683,15.31-.792,2.7-1.266,5.513-2.258,8.132a14.524,14.524,0,0,1-10.323,9.342c-2.109.54-2.446,1.527-2.441,3.4.055,16.588.032,33.176.032,49.763v12.425m-11.111-67.9H116.782v71.416h17.546Z" transform="translate(635.93 5530.67)" fill="#f91313"/>
    </g>
  </g>
</svg>
