<svg xmlns="http://www.w3.org/2000/svg" xmlns:xlink="http://www.w3.org/1999/xlink" width="308.686" height="232.81" viewBox="0 0 308.686 232.81">
  <defs>
    <clipPath id="clip-path">
      <rect id="Rectangle_721" data-name="Rectangle 721" width="308.686" height="232.809" transform="translate(292.656 5173.248)" fill="#fff" stroke="#c8c8c8" stroke-width="0.7"/>
    </clipPath>
  </defs>
  <g id="Mask_Group_13" data-name="Mask Group 13" transform="translate(-292.656 -5173.248)" opacity="0.03" clip-path="url(#clip-path)">
    <g id="Group_782" data-name="Group 782" transform="translate(0 -346)">
      <path id="Path_5140" data-name="Path 5140" d="M194.918,250.787c-2.94,6.856-7.769,11.261-15.043,12.7a16.921,16.921,0,0,1-3.2.294c-6.809.026-13.62.1-20.428-.006a19.36,19.36,0,0,1-19.3-19.1,19.1,19.1,0,0,1,18.018-19.705c7.592-.4,15.232-.338,22.832-.024,7.528.312,12.944,4.315,16.212,11.059a2.765,2.765,0,0,0,2.981,1.914c7.068-.206,14.194.207,21.2-.548,12.293-1.326,21.853-12.195,22.223-24.524.139-4.642.022-9.292.022-13.555-2.909-1.215-5.731-1.978-8.1-3.465a16.358,16.358,0,0,1-8.153-14.3c-.094-17.386-.138-34.773.013-52.158.072-8.218,5.729-14.822,13.739-16.761.693-.168,1.379-.363,2.057-.542-1.288-45.871-39.541-95.334-98.882-98.738C80.728,9.86,33.017,56.692,29.846,111.921c.7.214,1.43.479,2.184.663,8.152,1.982,13.755,8.576,13.826,16.974.145,17.206.2,34.416-.006,51.621C45.7,192.986,35.517,200.656,23.424,198.5,11.112,196.312,1.526,187.121.6,174.417a302.365,302.365,0,0,1,.024-38.385c.508-9.269,6.055-16.08,14.133-20.611a3.58,3.58,0,0,0,2.1-3.261c4.675-51,30.568-86.841,78.426-104.83C162.8-18.048,237.746,25.121,251.153,95.963c1.013,5.353,1.471,10.817,2.037,16.245a3.389,3.389,0,0,0,1.891,3.122c9.668,5.38,14.633,13.726,14.8,24.754q.239,15.322,0,30.649c-.152,10.92-5.036,19.23-14.536,24.652a3.52,3.52,0,0,0-2.005,3.58c-.06,6.264.356,12.622-.569,18.77-2.877,19.123-18.915,32.744-38.265,33.036-6.532.1-13.067.016-19.595.016m42.1-95.507c0,8.332-.039,16.664.017,25,.027,3.885,2.063,5.737,5.891,5.609a14.67,14.67,0,0,0,14.013-14.308q.317-16.119.005-32.25a14.766,14.766,0,0,0-13.174-14.31c-4.621-.4-6.729,1.455-6.748,6.073-.032,8.063-.009,16.127-.005,24.189m-204,.173q0-12.229,0-24.459c0-.179,0-.358-.005-.537-.145-3.716-2.085-5.557-5.777-5.486A14.656,14.656,0,0,0,13.1,139.154c-.231,10.835-.211,21.682-.007,32.519a14.7,14.7,0,0,0,13.03,14.148c4.8.454,6.869-1.373,6.885-6.179.027-8.063.007-16.126.007-24.189M166.3,250.9c3.315,0,6.632.055,9.946-.014,4-.083,6.717-2.745,6.758-6.487a6.346,6.346,0,0,0-6.594-6.627q-9.943-.171-19.891,0a6.383,6.383,0,0,0-6.645,6.591c.049,3.742,2.779,6.432,6.75,6.521,3.224.072,6.451.014,9.676.016" transform="translate(332 5519.085)" fill="#f91313"/>
      <path id="Path_5141" data-name="Path 5141" d="M119.736,199.1c-4.8-1.535-9.509-2.322-13.5-4.454-9.575-5.12-14.243-13.595-14.3-24.424-.1-18.192-.178-36.386.018-54.576.177-16.463,11.921-27.874,28.416-27.9q40.721-.071,81.442,0c16.367.034,28.082,11.354,28.3,27.728q.369,27.418,0,54.844c-.214,16.458-12.015,27.791-28.51,27.852-10.841.041-21.683-.054-32.522.084a6.656,6.656,0,0,0-4.156,1.69c-7.6,7.347-14.974,14.934-22.591,22.265a13.123,13.123,0,0,1-21.291-4.125,19.728,19.728,0,0,1-1.261-6.789c-.193-4.276-.055-8.566-.055-12.2m12.908,13.5.653.358c.7-.646,1.415-1.272,2.09-1.941,7.562-7.511,15.176-14.974,22.641-22.581a10.056,10.056,0,0,1,7.86-3.21c11.732.123,23.465.056,35.2.046,10.3-.009,16.178-5.845,16.192-16.143q.034-26.2,0-52.408c-.013-10.323-5.83-16.079-16.208-16.081q-39.9-.009-79.8,0c-10.741,0-16.439,5.666-16.446,16.376q-.016,25.934,0,51.87a31.966,31.966,0,0,0,.163,3.486,13.983,13.983,0,0,0,11.778,12.533,53.7,53.7,0,0,0,7.76.357c5.969.062,8.1,2.139,8.113,8.064q.016,9.639,0,19.276" transform="translate(305.974 5494.229)" fill="#f91313"/>
      <path id="Path_5142" data-name="Path 5142" d="M184.584,152.9a9.539,9.539,0,1,1-9.491,9.654,9.686,9.686,0,0,1,9.491-9.654" transform="translate(282.38 5475.754)" fill="#f91313"/>
      <path id="Path_5143" data-name="Path 5143" d="M131.407,162.546a9.488,9.488,0,1,1,9.681,9.431,9.6,9.6,0,0,1-9.681-9.431" transform="translate(294.76 5475.754)" fill="#f91313"/>
      <path id="Path_5144" data-name="Path 5144" d="M237.914,162.449a9.49,9.49,0,1,1-18.978-.16,9.489,9.489,0,0,1,18.978.16" transform="translate(269.956 5475.754)" fill="#f91313"/>
    </g>
  </g>
</svg>
