<svg xmlns="http://www.w3.org/2000/svg" xmlns:xlink="http://www.w3.org/1999/xlink" width="308.686" height="232.81" viewBox="0 0 308.686 232.81">
  <defs>
    <clipPath id="clip-path">
      <rect id="Rectangle_704" data-name="Rectangle 704" width="308.686" height="232.809" transform="translate(1320.656 5669.248)" fill="#fff" stroke="#c8c8c8" stroke-width="0.7"/>
    </clipPath>
  </defs>
  <g id="Mask_Group_16" data-name="Mask Group 16" transform="translate(-1320.656 -5669.248)" opacity="0.03" clip-path="url(#clip-path)">
    <g id="Group_787" data-name="Group 787">
      <path id="Path_5154" data-name="Path 5154" d="M313.838,161.294c-.419,1.239-.753,2.516-1.277,3.71a6.012,6.012,0,0,1-7.02,3.576,5.825,5.825,0,0,1-4.526-6.119c.945-11.365.024-22.616-1.4-33.891-.408-3.226.563-6.626.909-10.006-.079-.064-.223-.282-.389-.3-7.552-.859-12.1-5.976-16.8-11.257-6.567-7.371-12.577-14.93-16.137-24.325-.922-2.435-3.5-4.448-5.711-6.15-6.279-4.84-12.589-9.708-15.512-17.359-1.955-5.118-3.08-10.555-4.532-15.863-.877-3.208-1.927-6.275-5.113-7.992-5.51-2.97-8.321-7.919-10.066-13.67-.674-2.222-1.44-4.416-2.164-6.623l-1.058-.015c-.3,3.113-.785,6.221-.869,9.34-.206,7.541.035,15.1-.455,22.622a18.836,18.836,0,0,1-2.991,8.232c-3.671,5.933-10.478,8.214-17.506,5.34-9.388-3.839-18.138-8.987-25.235-16.4-4-4.176-5.081-9.26-2.741-14.734,1.392-3.255,3.016-6.41,4.741-10.041a32.713,32.713,0,0,0-4.552-1.043c-6.617-.535-13.238-1.088-19.868-1.37-5.014-.213-9.042,1.98-12.22,5.871C138.5,26.3,135.7,29.832,132.589,33.06c-5.017,5.209-11.055,6.641-17.918,4.009-1.333-.511-2.7-.945-4.024-1.472a7.683,7.683,0,0,0-8.122.984C94.517,43.233,86.564,49.958,78.8,56.892c-1.273,1.137-1.888,3.415-2.114,5.25-1.063,8.652-6.234,13.688-14.035,16.493-9.694,3.485-19.463,6.771-29.106,10.39a29.278,29.278,0,0,0-8.8,4.823,27.734,27.734,0,0,0-7.22,8.82c-2.245,4.856-3.392,10.227-4.909,15.408-1.137,3.879-.2,7.455,1.887,10.82,2.261,3.643,4.648,7.224,6.654,11a36.184,36.184,0,0,1,3.939,17.147c.018,6.443.333,12.781,3.173,18.837,1.894,4.04.927,8.2-1.364,12-1.1,1.817-2.216,3.623-3.3,5.4,7.789,4.436,15.43,5.67,23.442,1.157,8.39-4.727,17.634-6.205,27.114-6.639,6.991-.32,13.243-2.908,19.4-6.069,7.052-3.622,14.039-7.764,21.553-10.023,19.9-5.984,37.233-.63,51.816,13.964,2.382,2.384,4.366,5.209,6.932,7.354a38.454,38.454,0,0,0,9.32,6.158c3.707,1.569,7.111,3.055,8.641,6.965,9.986-.55,14.114,2,16.511,11.684,2.028,8.192,7,12.174,14.925,13.591,6.2,1.109,7.529,2.151,11.393,7.3,2.958-3.761,6.562-6.506,11.538-6.439,2.329.031,4.646.674,6.979.753a4.328,4.328,0,0,0,3.177-1.01c3.658-4.694,8.571-6.836,14.277-7.358,3.485-.319,4.757-2.368,4.939-5.474.15-2.55.138-5.109.286-7.659a25.177,25.177,0,0,1,4.95-12.99,5.865,5.865,0,0,1,7.647-1.776c2.665,1.395,4.26,4.535,2.72,7.234-3.094,5.419-3.011,11.274-3.586,17.139-.873,8.9-6.186,14.309-14.969,15.595a11.036,11.036,0,0,0-7.545,3.976c-3.916,4.771-9.261,5.79-15.009,4.307-3.061-.79-4.754-.1-6.424,2.7-5.019,8.409-13.678,8.138-18.46-.5a7.052,7.052,0,0,0-5.451-4.107c-6.681-1.191-12.887-3.893-17.021-9.435-2.486-3.332-3.847-7.512-5.64-11.347-.589-1.26-.945-2.628-1.427-4-1.775.324-3.257.673-4.759.855a9.651,9.651,0,0,1-10.446-6.242,4.279,4.279,0,0,0-2.038-2.225,38.187,38.187,0,0,1-13.754-9.475c-3.892-4.042-7.611-8.372-12.029-11.762-13.02-9.989-27.168-9.923-41.608-3.374-4.261,1.933-8.224,4.519-12.35,6.756-7.349,3.984-15.09,6.842-23.517,7.124-8.833.3-16.969,2.739-25.027,6.283a38.91,38.91,0,0,1-14.431,3.267c-6.8.152-13.244-2.428-19.024-6-5.7-3.523-7.7-9.508-4.124-15.052,3.617-5.6,3.99-10.377,1.651-16.559-1.628-4.3-1.212-9.466-1.274-14.251A28.465,28.465,0,0,0,8.139,141.8C4.65,136.54.81,131.352.223,124.776c-.242-2.71-.449-5.64.3-8.184C2.786,108.9,4.7,100.928,8.284,93.843c4.655-9.2,13.725-13.7,23.073-17.153q12.916-4.774,26-9.087c4.413-1.463,7.086-3.912,7.549-8.81a17.386,17.386,0,0,1,6.156-11.638C77.749,41.3,84.325,35.309,91.1,29.553c7.846-6.669,16.526-9.139,26.358-4.468.366.174.764.283,1.144.433a4.453,4.453,0,0,0,5.529-1.232c2.636-3.12,5.3-6.22,7.894-9.371,6.088-7.386,13.846-10.9,23.437-10.134,7.626.613,15.26,1.184,22.861,2.039a16.822,16.822,0,0,1,5.974,2.231c5.615,3.107,7.548,8.791,5.071,14.95a67.022,67.022,0,0,1-3.969,7.93c-1.2,2.12-1.125,4.028.873,5.341,5.957,3.918,11.906,7.878,18.1,11.39,2.967,1.681,4.839.608,5.108-2.793a170.292,170.292,0,0,0,.415-17.4c-.143-6.174.006-12.259,2.12-18.135a24.36,24.36,0,0,1,1.841-4.186c4.459-7.53,12.953-8.356,18.113-1.31,2.584,3.527,4.141,7.917,5.621,12.108,1.341,3.795,3.008,6.823,6.687,9.007,5.749,3.412,8.36,9.366,9.288,15.584,1.709,11.455,7.078,20.023,16.773,26.472a23.5,23.5,0,0,1,8.327,10.252c3.238,8.119,8.6,14.463,14.135,20.9,3.221,3.744,6.535,6.515,11.615,7.628,6.731,1.474,9.919,6.665,8.484,13.4-2.076,9.751,1,19.217.942,28.832Z" transform="translate(1320 5667)" fill="#f91313" stroke="#f91313" stroke-width="4"/>
      <path id="Path_5155" data-name="Path 5155" d="M345.295,358.464c-.815,5.681-1.165,10.662-2.308,15.453A15.908,15.908,0,0,1,331,386.2c-6.748,1.776-13.049.208-17.639-4.937a70.607,70.607,0,0,1-14.616-24.189c-3.279-9.648,3.741-17.68,13.808-15.907,3.007.529,5.935,1.526,8.95,1.98,2.995.452,6.147,1.066,9.063.59,6.462-1.056,12.565,2.4,14.292,10.963a35.963,35.963,0,0,1,.437,3.76m-34.851-4.715a71.1,71.1,0,0,0,11.928,19.28,4.873,4.873,0,0,0,6.2,1.025c2.1-1.121,2.7-2.989,2.795-5.345.1-2.588.8-5.149,1.164-7.733.214-1.529.28-3.079.359-3.989l-22.444-3.238" transform="translate(1250.899 5587.926)" fill="#f91313" stroke="#f91313" stroke-width="4"/>
      <path id="Path_5156" data-name="Path 5156" d="M390.7,234.05a6.1,6.1,0,1,1-6.137-5.836,5.84,5.84,0,0,1,6.137,5.836" transform="translate(1232.211 5614.069)" fill="#f91313" stroke="#f91313" stroke-width="4"/>
    </g>
  </g>
</svg>
