<svg xmlns="http://www.w3.org/2000/svg" xmlns:xlink="http://www.w3.org/1999/xlink" width="308.686" height="232.81" viewBox="0 0 308.686 232.81">
  <defs>
    <clipPath id="clip-path">
      <rect id="Rectangle_704" data-name="Rectangle 704" width="308.686" height="232.809" transform="translate(977.656 5665.248)" fill="#fff" stroke="#c8c8c8" stroke-width="0.7"/>
    </clipPath>
  </defs>
  <g id="Mask_Group_15" data-name="Mask Group 15" transform="translate(-977.656 -5665.248)" opacity="0.03" clip-path="url(#clip-path)">
    <g id="Group_786" data-name="Group 786">
      <path id="Path_5149" data-name="Path 5149" d="M367.217,222.41c-2.138,3.837-5.334,5.161-9.756,5.1-15.412-.208-30.828-.08-46.243-.08H307.4c-6.887,19.5-18.938,29.322-35.852,29.4q-25.758.125-36.363-29.187H124.469c-2.325,9.631-7.363,17.5-15.681,23.055A35.793,35.793,0,0,1,86.736,256.8c-12.549-.579-28.793-8.4-34.179-29.365H48.471c-12.905,0-25.813-.144-38.715.079-4.418.076-7.631-1.236-9.756-5.1V24.446a3.5,3.5,0,0,0,.55-.88C4.543,8.156,14.972.061,30.89.06q146.66,0,293.322-.06c4.5,0,7.347,1.573,9.405,5.592,8.106,15.832,16.411,31.562,24.619,47.342,3.766,7.24.716,12.291-7.415,12.3q-20.617.024-41.236,0h-5.975c21.482,32.006,42.546,63.387,63.608,94.769ZM14.5,212.86H52.556c5.837-18.062,18.116-28.471,34.185-29.12a36.166,36.166,0,0,1,21.456,5.718c8.652,5.545,13.877,13.559,16.29,23.461.841.058,1.427.135,2.013.135q53.063.01,106.126.061c2.29.006,2.935-.831,3.534-2.9a36.512,36.512,0,0,1,70.17-.217c.3.993.605,1.982.869,2.842h45.33V169.389c-13.455,0-26.6,0-39.74,0-6.361,0-9.5-2.349-9.542-7.1-.043-4.781,3.16-7.265,9.391-7.27q12.191-.007,24.381,0h9.431c-2.209-3.338-4.323-5.949-5.791-8.883-2.473-4.944-6.008-6.466-11.61-6.361-20.907.39-41.826.183-62.741.147-15.531-.027-25.89-10.346-25.943-25.819-.042-12.07.343-24.155-.1-36.21-.584-16.079,11.371-27.529,26.923-27.17,23.053.532,46.129.138,69.194.137h4.327c-.742-1.577-1.241-2.745-1.827-3.869-5.012-9.636-10.147-19.209-14.993-28.928-1.344-2.695-2.807-3.711-5.923-3.708q-143.413.148-286.826.082c-11.058,0-16.766,5.7-16.767,16.766q-.009,59.879,0,119.757v4.059h4.707q51.27,0,102.54,0a24.65,24.65,0,0,1,3.579.1,7.156,7.156,0,0,1-.3,14.2,37.56,37.56,0,0,1-3.94.076q-51.092,0-102.182,0H14.5Zm311.724-87.312a6.989,6.989,0,0,0-.448-1.357q-19.223-28.7-38.532-57.335a4.493,4.493,0,0,0-3.21-1.544q-9.487-.211-18.981-.031c-6.042.113-10.158,4.017-10.237,10.146q-.258,19.876,0,39.756c.077,6.259,4.241,10.3,10.484,10.33,20.173.092,40.347.034,60.927.034M66.466,220.383a22.1,22.1,0,1,0,21.9-22.3,22.129,22.129,0,0,0-21.9,22.3m226.923-.2a22.162,22.162,0,1,0-21.942,22.274,22.2,22.2,0,0,0,21.942-22.274" transform="translate(1017 5665.085)" fill="#f91313"/>
      <path id="Path_5150" data-name="Path 5150" d="M186.55,127.741V67.564h-3.9c-8.244,0-16.489.043-24.735-.019-4.911-.037-8.038-2.933-8.034-7.227,0-4.368,2.991-7.1,8.06-7.12q17.565-.079,35.13,0c5.357.028,8.007,2.574,8.02,7.908q.092,36.565,0,73.132c-.013,5.271-2.767,7.985-7.99,7.989q-67.213.049-134.426,0c-5.212,0-8.1-2.709-8.121-7.928q-.126-36.565-.006-73.132c.016-5.3,2.777-7.938,8.025-7.97q16.13-.095,32.263,0c4.888.025,8.123,3,8.083,7.189-.039,4.166-3.34,7.118-8.2,7.16-8.243.072-16.487.055-24.731.091-.214,0-.428.177-.82.35v59.752Z" transform="translate(1014.793 5662.762)" fill="#f91313"/>
      <path id="Path_5151" data-name="Path 5151" d="M127.371,53.144a6.927,6.927,0,0,1,7.051,7.015,7.138,7.138,0,0,1-6.956,7.2,7.33,7.33,0,0,1-7.316-7.281,7.134,7.134,0,0,1,7.221-6.935" transform="translate(1011.749 5662.762)" fill="#f91313"/>
      <path id="Path_5152" data-name="Path 5152" d="M99.29,230.433a6.918,6.918,0,0,1-7.149,6.9,7.064,7.064,0,0,1-7.061-7.058,7.194,7.194,0,0,1,7.395-7.146,7.063,7.063,0,0,1,6.816,7.3" transform="translate(1013.282 5655.333)" fill="#f91313"/>
      <path id="Path_5153" data-name="Path 5153" d="M290.4,230.433a6.918,6.918,0,0,1-7.149,6.9,7.064,7.064,0,0,1-7.061-7.058,7.193,7.193,0,0,1,7.395-7.146,7.064,7.064,0,0,1,6.816,7.3" transform="translate(1004.929 5655.333)" fill="#f91313"/>
    </g>
  </g>
</svg>
